<svg xmlns="http://www.w3.org/2000/svg" width="100" height="103" viewBox="0 0 100 103"><path fill="#FF424E" d="M54.99 102.856a11.2 11.2 0 0 1-2.65-.321 11.034 11.034 0 0 1-6.861-5.021c-2.84-4.673-1.814-10.63 2.162-14.12L18.156 34.892l-.01-.016L.281 5.485a1.928 1.928 0 0 1 3.293-2.003l16.874 27.76 8.203-4.987-8.574-14.105a1.926 1.926 0 0 1 .646-2.647L35.893.28a1.923 1.923 0 0 1 2.648.645l8.574 14.105 5.686-3.456a1.927 1.927 0 0 1 2.648.645L73.922 42.61l3.41-2.073a1.925 1.925 0 0 1 2.647.646l14.694 24.171 2.399-1.457a1.928 1.928 0 0 1 2.002 3.293l-4.035 2.453-.01.006-.011.007-29.696 18.052c1.924 4.928.092 10.69-4.58 13.529a11.044 11.044 0 0 1-5.751 1.62zm-.03-18.365a7.21 7.21 0 0 0-3.757 1.053c-3.418 2.078-4.508 6.55-2.43 9.967a7.209 7.209 0 0 0 4.48 3.28 7.21 7.21 0 0 0 5.486-.85c3.416-2.076 4.507-6.543 2.434-9.96l-.003-.006-.002-.004a7.26 7.26 0 0 0-6.209-3.48zm-.008-3.853a11.14 11.14 0 0 1 8.367 3.775l28.06-17.057L77.688 44.83l-3.397 2.065-.013.008L41.924 66.57l9.01 14.823a11.037 11.037 0 0 1 4.018-.755zm-21.205-27.52l6.175 10.159 9.84-5.982.01-.005 20.856-12.68-17.472-28.74-5.673 3.448-.013.008-15.17 9.222-.017.01-9.833 5.977 11.297 18.583zM24.37 11.795l7.574 12.458 11.877-7.22-7.573-12.458-11.878 7.22z"/></svg>