<svg xmlns="http://www.w3.org/2000/svg" width="99" height="82" viewBox="0 0 99 82">
    <g fill="#FF424E" fill-rule="nonzero">
        <path d="M23.081 64.535c.613 0 1.19-.287 1.563-.775.053-.07 5.393-7.083 10.658-15.44 7.206-11.442 10.86-19.896 10.86-25.128 0-12.773-10.354-23.164-23.08-23.164C10.353.028 0 10.419 0 23.19c0 5.233 3.654 13.687 10.861 25.128 5.265 8.358 10.604 15.371 10.657 15.441.373.488.95.775 1.563.775zM3.937 23.19c0-10.593 8.588-19.212 19.144-19.212s19.145 8.619 19.145 19.212c0 8.316-12.631 27.215-19.145 36.077-6.514-8.86-19.144-27.757-19.144-36.077z"/>
        <path d="M36.918 23.191c0-7.656-6.207-13.886-13.837-13.886S9.244 15.535 9.244 23.191c0 7.657 6.208 13.887 13.837 13.887 7.63 0 13.837-6.23 13.837-13.887zm-23.736 0c0-5.478 4.44-9.935 9.9-9.935 5.458 0 9.9 4.457 9.9 9.935 0 5.479-4.442 9.936-9.9 9.936-5.46 0-9.9-4.457-9.9-9.936z"/>
        <path d="M25.05 17.208a1.972 1.972 0 0 0-1.969-1.976c-4.373 0-7.931 3.57-7.931 7.96 0 1.09.881 1.975 1.968 1.975a1.972 1.972 0 0 0 1.969-1.975c0-2.21 1.792-4.009 3.994-4.009a1.972 1.972 0 0 0 1.969-1.975zM75.737.028C63.01.028 52.656 10.419 52.656 23.19c0 5.233 3.654 13.687 10.861 25.128 5.265 8.358 10.604 15.371 10.658 15.441a1.966 1.966 0 0 0 3.125 0c.053-.07 5.393-7.083 10.658-15.44 7.207-11.442 10.86-19.896 10.86-25.129C98.819 10.42 88.465.028 75.739.028zm0 59.24c-6.514-8.86-19.144-27.757-19.144-36.077 0-10.593 8.588-19.212 19.144-19.212 10.557 0 19.145 8.619 19.145 19.212 0 8.316-12.63 27.216-19.145 36.078z"/>
        <path d="M75.737 9.305c-7.63 0-13.836 6.23-13.836 13.887s6.207 13.886 13.836 13.886c7.63 0 13.837-6.23 13.837-13.886 0-7.657-6.207-13.887-13.837-13.887zm0 23.822c-5.458 0-9.9-4.457-9.9-9.936 0-5.478 4.442-9.935 9.9-9.935 5.459 0 9.9 4.457 9.9 9.935 0 5.479-4.44 9.936-9.9 9.936zM75.62 67.93c-3.69 0-6.693 3.014-6.693 6.718 0 3.703 3.002 6.717 6.693 6.717 3.69 0 6.693-3.014 6.693-6.717 0-3.704-3.003-6.717-6.693-6.717zm0 9.483a2.764 2.764 0 0 1-2.756-2.765 2.764 2.764 0 0 1 2.756-2.766c1.52 0 2.756 1.24 2.756 2.766a2.764 2.764 0 0 1-2.756 2.765zM63.612 72.672h-5.315a1.972 1.972 0 0 0-1.968 1.976c0 1.09.881 1.975 1.968 1.975h5.315a1.972 1.972 0 0 0 1.969-1.975 1.972 1.972 0 0 0-1.969-1.976zM51.407 72.672H29.458c-.843-2.742-3.391-4.741-6.397-4.741-3.69 0-6.693 3.013-6.693 6.717 0 3.703 3.002 6.717 6.693 6.717 3.006 0 5.555-2 6.397-4.742h21.95a1.972 1.972 0 0 0 1.968-1.975 1.972 1.972 0 0 0-1.969-1.976zm-28.346 4.741a2.764 2.764 0 0 1-2.756-2.765 2.764 2.764 0 0 1 2.756-2.766c1.52 0 2.756 1.24 2.756 2.766a2.764 2.764 0 0 1-2.756 2.765z"/>
    </g>
</svg>
