<svg xmlns="http://www.w3.org/2000/svg" width="100" height="99" viewBox="0 0 100 99">
    <g fill="#FF424E" fill-rule="nonzero">
        <path d="M49.972.115L0 23.763v15.26h6.798v59.181h4.165v-59.18h78.025v59.18h4.164v-59.18h6.8v-15.46L49.971.116zM95.787 34.86H4.165v-8.458L49.98 4.719l45.807 21.492v8.648z"/>
        <path d="M47.658 55.825H28.604v18.794h19.054V55.825zm-4.164 14.63H32.769V59.989h10.725v10.466zM71.346 55.825H52.292v18.794h19.054V55.825zm-4.165 14.63H56.456V59.989h10.725v10.466zM16.98 97.062h19.055V78.266H16.98v18.796zm4.164-14.63H31.87v10.466H21.144V82.43zM40.448 97.062h19.055V78.266H40.448v18.796zm4.164-14.63h10.726v10.466H44.612V82.43zM63.916 97.062h19.055V78.266H63.916v18.796zm4.165-14.63h10.725v10.466H68.08V82.43zM18.43 25.997h9.925v4.165H18.43zM45.013 25.997h9.925v4.165h-9.925zM71.596 25.997h9.925v4.165h-9.925z"/>
    </g>
</svg>
