<svg xmlns="http://www.w3.org/2000/svg" width="100" height="102" viewBox="0 0 100 102"><path fill="#FF424E" d="M99.55 19.625l.07-.184L49.853 0 .169 19.642l-.162-.064v.126L0 19.708l.007.02v62.36l49.824 19.53 49.831-19.531V19.579l-.112.046zM49.807 3.822l16.88 6.045L20.673 27.73 5.086 21.583 49.807 3.822zm-1.752 93.39l-18.66-7.534-9.366-3.518-16.461-6.494V24.81l16.296 6.428v13.717l1.452-.406.982 1.35 1.366-.32 1.324 1.398 1.155-.398 1.864 1.85V34.45l1.45.573 18.598 7.335v54.854zm1.78-57.976l-18.194-7.179 44.873-18.186 18.507 7.54-45.186 17.825zm46.269 40.43l-44.49 17.546V42.358l44.485-17.549v54.855l.005.002z"/></svg>