<svg xmlns="http://www.w3.org/2000/svg" width="55" height="50" viewBox="0 0 55 50">
    <g fill="#FF424E" fill-rule="nonzero">
        <path d="M19.266 6.33h33.84c.773 0 1.399-.672 1.399-1.5 0-.827-.626-1.499-1.399-1.499h-33.84c-.772 0-1.398.672-1.398 1.5 0 .827.626 1.499 1.398 1.499zM53.106 7.496h-33.84c-.772 0-1.398.671-1.398 1.499 0 .828.626 1.499 1.398 1.499h33.84c.773 0 1.399-.671 1.399-1.5 0-.827-.626-1.498-1.399-1.498zM53.106 20.821h-33.84c-.772 0-1.398.672-1.398 1.5 0 .827.626 1.499 1.398 1.499h33.84c.773 0 1.399-.672 1.399-1.5 0-.827-.626-1.499-1.399-1.499zM53.106 24.986h-33.84c-.772 0-1.398.67-1.398 1.499 0 .828.626 1.499 1.398 1.499h33.84c.773 0 1.399-.671 1.399-1.5 0-.827-.626-1.498-1.399-1.498zM11.886 34.98H1.398C.626 34.98 0 35.651 0 36.48v11.244c0 .828.626 1.499 1.398 1.499h10.488c.773 0 1.398-.671 1.398-1.5V36.48c0-.828-.625-1.499-1.398-1.499zm-1.398 11.244H2.797v-8.246h7.691v8.246zM53.106 38.312h-33.84c-.772 0-1.398.67-1.398 1.499 0 .827.626 1.499 1.398 1.499h33.84c.773 0 1.399-.672 1.399-1.5 0-.827-.626-1.498-1.399-1.498zM53.106 43.309h-33.84c-.772 0-1.398.67-1.398 1.499 0 .828.626 1.499 1.398 1.499h33.84c.773 0 1.399-.671 1.399-1.5 0-.827-.626-1.498-1.399-1.498zM14.702 5.621h-1.418V1.5C13.284.67 12.66 0 11.886 0H1.398C.626 0 0 .672 0 1.499v11.244c0 .828.626 1.499 1.398 1.499h10.488c.773 0 1.398-.671 1.398-1.5V8.62h1.418c.772 0 1.398-.671 1.398-1.499 0-.828-.626-1.499-1.398-1.499zm-4.214 5.623H2.797V2.998h7.691v2.623H6.642c-.772 0-1.398.672-1.398 1.5 0 .827.626 1.498 1.398 1.498h3.846v2.625zM14.702 23.113h-1.418v-4.124c0-.828-.625-1.499-1.398-1.499H1.398C.626 17.49 0 18.161 0 18.989v11.245c0 .828.626 1.5 1.398 1.5h10.488c.773 0 1.398-.672 1.398-1.5v-4.123h1.418c.772 0 1.398-.671 1.398-1.5 0-.827-.626-1.498-1.398-1.498zm-4.214 5.623H2.797v-8.248h7.691v2.625H6.642c-.772 0-1.398.671-1.398 1.499 0 .828.626 1.499 1.398 1.499h3.846v2.625z"/>
    </g>
</svg>
