<svg xmlns="http://www.w3.org/2000/svg" width="54" height="50" viewBox="0 0 54 50">
    <path fill="#FF424E" fill-rule="nonzero" d="M48.782 18.99h-1.825C46.358 8.477 37.626.11 26.978.11S7.598 8.479 7 18.99H5.175A5.183 5.183 0 0 0 0 24.17v8.813a5.183 5.183 0 0 0 5.175 5.18h1.947c.919 5.675 5.846 10.022 11.77 10.022h2.885a2.558 2.558 0 0 0 2.3 1.442h4.91a2.563 2.563 0 0 0 2.56-2.564v-1.602a2.563 2.563 0 0 0-2.56-2.564h-4.91a2.558 2.558 0 0 0-2.3 1.442h-2.885c-4.457 0-8.084-3.63-8.084-8.092v-.003V20.143c0-8.925 7.254-16.186 16.17-16.186 8.916 0 16.17 7.26 16.17 16.186V36.24c0 1.062.86 1.923 1.921 1.923h3.713a5.183 5.183 0 0 0 5.175-5.18V24.17a5.184 5.184 0 0 0-5.175-5.18zM6.966 34.316H5.175a1.335 1.335 0 0 1-1.333-1.334V24.17c0-.736.598-1.335 1.333-1.335h1.791v11.482zm43.149-1.334c0 .736-.598 1.334-1.333 1.334H46.99V22.835h1.792c.735 0 1.333.599 1.333 1.335v8.813z"/>
</svg>
