<svg xmlns="http://www.w3.org/2000/svg" width="50" height="50" viewBox="0 0 50 50"><g fill="#FF424E"><path d="M48.06.26H2.192A1.934 1.934 0 0 0 .259 2.193V48.06c0 1.068.866 1.933 1.934 1.933h45.866a1.933 1.933 0 0 0 1.934-1.933V2.193A1.934 1.934 0 0 0 48.059.26zm-1.934 45.866h-42V4.127h42v41.999z"/><path d="M23.758 34.37a1.934 1.934 0 0 0 2.734 0l7.396-7.397a1.933 1.933 0 1 0-2.734-2.734l-4.095 4.095v-16.17a1.934 1.934 0 0 0-3.867 0v16.17l-4.096-4.095a1.933 1.933 0 1 0-2.734 2.734l7.396 7.396zM9.797 42.06h30.658a1.934 1.934 0 0 0 0-3.867H9.797a1.934 1.934 0 0 0 0 3.867z"/></g></svg>