<svg xmlns="http://www.w3.org/2000/svg" width="58" height="48" viewBox="0 0 58 48">
    <g fill="#FF424E" fill-rule="nonzero">
        <path d="M48.074 40.443a3.65 3.65 0 0 0-3.641 3.657 3.651 3.651 0 0 0 3.64 3.657 3.648 3.648 0 0 0 3.64-3.657 3.647 3.647 0 0 0-3.64-3.657zm0 5.483a1.82 1.82 0 0 1-1.818-1.826c0-1.011.813-1.83 1.818-1.83 1.001 0 1.818.819 1.818 1.83a1.823 1.823 0 0 1-1.818 1.826zM29.03 40.443c-2.008 0-3.638 1.637-3.638 3.657 0 2.019 1.63 3.657 3.638 3.657 2.01 0 3.64-1.638 3.64-3.657a3.647 3.647 0 0 0-3.64-3.657zm0 5.483a1.824 1.824 0 0 1-1.82-1.826c0-1.011.815-1.83 1.82-1.83 1.005 0 1.821.819 1.821 1.83a1.825 1.825 0 0 1-1.821 1.826z"/>
        <path d="M56.137 40.443V31.14l-5.895-8.678h-9.034l-.008 17.81h-8.958a5.008 5.008 0 0 1 1.724 3.125h9.178c.343-2.442 2.41-4.328 4.934-4.328s4.59 1.886 4.933 4.328h4.556v-2.957h-1.43v.002zm-12.272-9.554v-5.237l5.437.028 3.525 5.209h-8.962zM18.887 40.272V43.4H24.1a5.002 5.002 0 0 1 1.72-3.128h-6.933z"/>
        <path d="M3.109 12.993L23.95 4.048l20.842 8.945v7.377h3.109v-9.439L23.95.654 0 10.93v32.47h16.537v-3.06H3.109z"/>
        <path d="M5.747 31.139h10.791v6.693H5.747zM18.57 31.139h10.791v6.693H18.57zM31.397 31.139h7.395v6.693h-7.395zM5.747 21.937h10.791v6.694H5.747zM18.57 21.937h10.791v6.694H18.57zM18.57 12.733h10.791v6.694H18.57z"/>
    </g>
</svg>
