<svg version="1" xmlns="http://www.w3.org/2000/svg" width="768" height="768" viewBox="0 0 576.000000 576.000000"><path d="M0 288v288h576V0H0v288zM462.7 77.6c1.5 1.2 3.7 3.6 4.8 5.5 1.8 3.1 2 5.5 2.3 30.1l.3 26.8h21.8c16.9 0 22.1.3 22.9 1.3.7.8 1.3 7.1 1.4 15.3l.3 13.9 7 .6c8.4.6 9.6 1.1 11.8 4.8 1.5 2.6 1.7 6.5 1.7 32.6 0 37.2-.1 37.5-13.4 37.5h-6.5l-.3 14.6c-.3 13.1-.5 14.7-2.2 16-1.6 1.1-6.5 1.4-23.3 1.4H470v46h2.3c3.2 0 8.4 3.5 10.7 7.2 1.9 3.1 2 5.1 2 38 0 19.1-.4 35.7-.9 37-.5 1.3-1.8 3.3-3 4.5-1.8 1.9-1.8 2.3-.5 3.4 3.8 3.1 4.4 6.4 4.4 23.6 0 14.9-.2 17.2-2 20-2.9 4.8-6.6 6.7-14 7.3l-6.5.5-.3 14.1c-.2 13.8-.3 14.3-2.9 16.8-1.4 1.4-4.2 3-6.2 3.6-2 .6-16.4 1-33.1 1-28.7 0-29.7-.1-34-2.3-2.5-1.2-5.1-3.3-5.7-4.7-.8-1.6-1.3-7.3-1.3-15.8V465H200v13.2c0 8.5-.5 14.2-1.3 15.8-.6 1.4-3.2 3.5-5.7 4.7-4.3 2.2-5.3 2.3-34 2.3-16.7 0-31.1-.4-33.1-1s-4.8-2.2-6.2-3.6c-2.6-2.5-2.7-3-2.9-16.8l-.3-14.1-6.5-.5c-7.4-.6-11.1-2.5-14-7.3-1.8-2.8-2-5.1-2-20 0-17.1.4-19.1 4.2-23.3 1.5-1.7 1.6-2.3.5-2.7-.8-.3-2.1-2.1-3-4-1.5-3.1-1.7-8-1.7-38.4 0-33 .1-35 2-38.1 2.3-3.7 7.5-7.2 10.8-7.2h2.2v-46H87.7c-16.8 0-21.7-.3-23.3-1.4-1.7-1.3-1.9-2.9-2.2-15.5l-.4-14.1h-4.1c-7 0-11.6-1.8-13.7-5.3-1.9-3-2-5.2-2-33 0-26.1.2-30.2 1.7-32.7 2.2-3.8 5.2-5 12.3-5h5.8l.4-13.8c.2-9.9.7-14.4 1.7-15.5 1.2-1.5 4.1-1.7 23.2-1.7H109v-25.5c0-26.8.4-30 4.8-34.9 4.2-4.7-3.1-4.5 176.9-4.3l169.2.2 2.8 2.1z"/><path d="M140 161.5V217h299V106H140v55.5zm-67-1V171h6.1c6.5 0 9.4 1 12.1 4.4 1.6 1.9 1.8 5.2 1.8 33.2 0 29.9-.1 31.2-2 33.7-2.3 3-7.4 4.7-13.7 4.7H73v20h36V150H73v10.5zm397 48V267h36v-20h-4.2c-6.4 0-11.5-1.7-13.8-4.7-1.9-2.5-2-3.9-2-34v-31.5l2.9-2.9c2.7-2.7 3.5-2.9 10-2.9h7.1v-21h-36v58.5zm-262 95V315h163v-23H208v11.5zm0 34.5v12h163v-24H208v12zm-90 34v21h68v-42h-68v21zm275 0v21h68v-42h-68v21zm-184.8.7l.3 11.8h162l.3-11.8.3-11.7H207.9l.3 11.7zM208 405v9h163v-18H208v9zm-83.5 21c-6 4-8.1 11.8-4.9 18.6 4.7 9.8 20.1 9.8 24.8 0 4.7-9.9-1.8-20.6-12.5-20.6-2.7 0-5.6.8-7.4 2zm37.8 0c-8.7 5.2-8.3 19.8.6 24.5 6.3 3.2 14.8.9 18.7-5.1 1.1-1.6 1.8-4.6 1.8-7.4 0-2.8-.7-5.8-1.8-7.4-4.1-6.3-13.1-8.4-19.3-4.6zm240 0c-4.6 2.8-6.7 6.5-6.7 12 0 8 5.9 14 13.7 14 8 0 13.7-5.8 13.7-14 0-11.1-11.4-17.7-20.7-12zm37.2 0c-6 4-8.1 11.8-4.9 18.6 4.7 9.8 20.1 9.8 24.8 0 4.7-9.9-1.8-20.6-12.5-20.6-2.7 0-5.6.8-7.4 2z"/></svg>