<?xml version="1.0" standalone="no"?>
<!DOCTYPE svg PUBLIC "-//W3C//DTD SVG 20010904//EN"
 "http://www.w3.org/TR/2001/REC-SVG-20010904/DTD/svg10.dtd">
<svg version="1.0" xmlns="http://www.w3.org/2000/svg"
 width="576.000000pt" height="576.000000pt" viewBox="0 0 576.000000 576.000000"
 preserveAspectRatio="xMidYMid meet">
<metadata>
Created by potrace 1.11, written by Peter Selinger 2001-2013
</metadata>
<g transform="translate(0.000000,576.000000) scale(0.100000,-0.100000)"
fill="#000000" stroke="none">
<path d="M0 2880 l0 -2880 2880 0 2880 0 0 2880 0 2880 -2880 0 -2880 0 0
-2880z m4627 2104 c15 -12 37 -36 48 -55 18 -31 20 -55 23 -301 l3 -268 218 0
c169 0 221 -3 229 -13 7 -8 13 -71 14 -153 l3 -139 70 -6 c84 -6 96 -11 118
-48 15 -26 17 -65 17 -326 0 -372 -1 -375 -134 -375 l-65 0 -3 -146 c-3 -131
-5 -147 -22 -160 -16 -11 -65 -14 -233 -14 l-213 0 0 -230 0 -230 23 0 c32 0
84 -35 107 -72 19 -31 20 -51 20 -380 0 -191 -4 -357 -9 -370 -5 -13 -18 -33
-30 -45 -18 -19 -18 -23 -5 -34 38 -31 44 -64 44 -236 0 -149 -2 -172 -20
-200 -29 -48 -66 -67 -140 -73 l-65 -5 -3 -141 c-2 -138 -3 -143 -29 -168 -14
-14 -42 -30 -62 -36 -20 -6 -164 -10 -331 -10 -287 0 -297 1 -340 23 -25 12
-51 33 -57 47 -8 16 -13 73 -13 158 l0 132 -895 0 -895 0 0 -132 c0 -85 -5
-142 -13 -158 -6 -14 -32 -35 -57 -47 -43 -22 -53 -23 -340 -23 -167 0 -311 4
-331 10 -20 6 -48 22 -62 36 -26 25 -27 30 -29 168 l-3 141 -65 5 c-74 6 -111
25 -140 73 -18 28 -20 51 -20 200 0 171 4 191 42 233 15 17 16 23 5 27 -8 3
-21 21 -30 40 -15 31 -17 80 -17 384 0 330 1 350 20 381 23 37 75 72 108 72
l22 0 0 230 0 230 -213 0 c-168 0 -217 3 -233 14 -17 13 -19 29 -22 155 l-4
141 -41 0 c-70 0 -116 18 -137 53 -19 30 -20 52 -20 330 0 261 2 302 17 327
22 38 52 50 123 50 l58 0 4 138 c2 99 7 144 17 155 12 15 41 17 232 17 l219 0
0 255 c0 268 4 300 48 349 42 47 -31 45 1769 43 l1692 -2 28 -21z"/>
<path d="M1400 4145 l0 -555 1495 0 1495 0 0 555 0 555 -1495 0 -1495 0 0
-555z"/>
<path d="M730 4155 l0 -105 61 0 c65 0 94 -10 121 -44 16 -19 18 -52 18 -332
0 -299 -1 -312 -20 -337 -23 -30 -74 -47 -137 -47 l-43 0 0 -100 0 -100 180 0
180 0 0 585 0 585 -180 0 -180 0 0 -105z"/>
<path d="M4700 3675 l0 -585 180 0 180 0 0 100 0 100 -42 0 c-64 0 -115 17
-138 47 -19 25 -20 39 -20 340 l0 315 29 29 c27 27 35 29 100 29 l71 0 0 105
0 105 -180 0 -180 0 0 -585z"/>
<path d="M2080 2725 l0 -115 815 0 815 0 0 115 0 115 -815 0 -815 0 0 -115z"/>
<path d="M2080 2380 l0 -120 815 0 815 0 0 120 0 120 -815 0 -815 0 0 -120z"/>
<path d="M1180 2040 l0 -210 340 0 340 0 0 210 0 210 -340 0 -340 0 0 -210z"/>
<path d="M3930 2040 l0 -210 340 0 340 0 0 210 0 210 -340 0 -340 0 0 -210z"/>
<path d="M2082 2033 l3 -118 810 0 810 0 3 118 3 117 -816 0 -816 0 3 -117z"/>
<path d="M2080 1710 l0 -90 815 0 815 0 0 90 0 90 -815 0 -815 0 0 -90z"/>
<path d="M1245 1500 c-60 -40 -81 -118 -49 -186 47 -98 201 -98 248 0 47 99
-18 206 -125 206 -27 0 -56 -8 -74 -20z"/>
<path d="M1623 1500 c-87 -52 -83 -198 6 -245 63 -32 148 -9 187 51 11 16 18
46 18 74 0 28 -7 58 -18 74 -41 63 -131 84 -193 46z"/>
<path d="M4023 1500 c-46 -28 -67 -65 -67 -120 0 -80 59 -140 137 -140 80 0
137 58 137 140 0 111 -114 177 -207 120z"/>
<path d="M4395 1500 c-60 -40 -81 -118 -49 -186 47 -98 201 -98 248 0 47 99
-18 206 -125 206 -27 0 -56 -8 -74 -20z"/>
</g>
</svg>
