<svg xmlns="http://www.w3.org/2000/svg" width="65" height="65" viewBox="0 0 65 65"><g fill="#FF424E"><path d="M54.438 11.917c-1.695-.908-12.223-6.577-18.01-10.207A5.387 5.387 0 0 0 32.5 0c-1.55 0-2.941.663-3.93 1.71-5.786 3.63-16.314 9.299-18.008 10.207H0V65h65V11.917H54.437zm-19.53-8.663c.005.006.006.012.011.018.263.295.554.743.712 1.317.013.049.035.094.045.145A3.254 3.254 0 0 1 32.5 8.667a3.254 3.254 0 0 1-3.25-3.25c0-.245.028-.473.075-.683.01-.05.031-.094.044-.143a3.338 3.338 0 0 1 .712-1.32c.004-.005.005-.011.01-.017A3.233 3.233 0 0 1 32.5 2.167c.959 0 1.812.425 2.408 1.087zM27.09 5.15a5.423 5.423 0 0 0 5.41 5.683 5.423 5.423 0 0 0 5.41-5.683c3.893 2.314 8.705 4.98 11.979 6.767H15.11c3.274-1.787 8.086-4.453 11.979-6.767zm-16.257 8.933h52V19.5H2.167v-5.417h8.666zm-8.666 48.75V21.667h60.666v41.166H2.167z"/><circle cx="24.917" cy="30.333" r="1.083"/><circle cx="32.5" cy="30.333" r="1.083"/><circle cx="40.083" cy="30.333" r="1.083"/><circle cx="47.667" cy="30.333" r="1.083"/><circle cx="55.25" cy="30.333" r="1.083"/><circle cx="9.75" cy="39" r="1.083"/><circle cx="17.333" cy="39" r="1.083"/><circle cx="24.917" cy="39" r="1.083"/><circle cx="32.5" cy="39" r="1.083"/><circle cx="40.083" cy="39" r="1.083"/><circle cx="47.667" cy="39" r="1.083"/><circle cx="55.25" cy="39" r="1.083"/><circle cx="9.75" cy="46.583" r="1.083"/><circle cx="17.333" cy="46.583" r="1.083"/><circle cx="24.917" cy="46.583" r="1.083"/><circle cx="32.5" cy="46.583" r="1.083"/><circle cx="40.083" cy="46.583" r="1.083"/><circle cx="47.667" cy="46.583" r="1.083"/><circle cx="55.25" cy="46.583" r="1.083"/><circle cx="9.75" cy="55.25" r="1.083"/><circle cx="17.333" cy="55.25" r="1.083"/><circle cx="24.917" cy="55.25" r="1.083"/><circle cx="32.5" cy="55.25" r="1.083"/><circle cx="40.083" cy="55.25" r="1.083"/></g></svg>