<svg xmlns="http://www.w3.org/2000/svg" width="65" height="65" viewBox="0 0 65 65"><path fill="#FF424E" d="M58.944 50.52a7.299 7.299 0 0 0 2.652-5.628c0-3.695-2.76-6.752-6.326-7.234a8.37 8.37 0 0 0-5.723-6.974 7.294 7.294 0 0 0 2.653-5.628c0-4.03-3.278-7.308-7.308-7.308-.893 0-1.745.17-2.536.463a8.29 8.29 0 0 0-5.336-5.275 7.299 7.299 0 0 0 2.652-5.628c0-4.03-3.278-7.308-7.308-7.308-4.03 0-7.308 3.278-7.308 7.308a7.299 7.299 0 0 0 2.652 5.628 8.291 8.291 0 0 0-5.336 5.275 7.253 7.253 0 0 0-2.536-.463c-4.03 0-7.308 3.278-7.308 7.308a7.297 7.297 0 0 0 2.652 5.628 8.37 8.37 0 0 0-5.723 6.974c-3.566.482-6.325 3.54-6.325 7.234a7.299 7.299 0 0 0 2.652 5.628C2.433 51.606 0 54.754 0 58.464v6.264h20.88v-6.264c0-3.71-2.433-6.858-5.784-7.944a7.299 7.299 0 0 0 2.652-5.628h7.308a7.299 7.299 0 0 0 2.652 5.628c-3.352 1.086-5.784 4.234-5.784 7.944v6.264h20.88v-6.264c0-3.71-2.433-6.858-5.784-7.944a7.299 7.299 0 0 0 2.652-5.628h7.308a7.299 7.299 0 0 0 2.652 5.628c-3.352 1.086-5.784 4.234-5.784 7.944v6.264h20.88v-6.264c0-3.71-2.433-6.858-5.784-7.944zM44.892 19.836a5.226 5.226 0 0 1 5.22 5.22 5.226 5.226 0 0 1-5.22 5.22 5.226 5.226 0 0 1-5.22-5.22 5.226 5.226 0 0 1 5.22-5.22zm1.55 12.528l-1.55 3.613-1.55-3.613h3.1zm-6.204-1.68a8.367 8.367 0 0 0-5.748 7.217 7.285 7.285 0 0 0-4.251 0 8.367 8.367 0 0 0-5.747-7.217 7.333 7.333 0 0 0 2.345-3.54h11.056a7.318 7.318 0 0 0 2.345 3.54zM27.144 7.308a5.226 5.226 0 0 1 5.22-5.22 5.226 5.226 0 0 1 5.22 5.22 5.226 5.226 0 0 1-5.22 5.22 5.226 5.226 0 0 1-5.22-5.22zm6.77 7.308l-1.55 3.613-1.55-3.613h3.1zm-5.269.238l3.719 8.677 3.719-8.677a6.188 6.188 0 0 1 4.385 4.398 7.292 7.292 0 0 0-2.884 5.804h-10.44a7.292 7.292 0 0 0-2.885-5.804 6.192 6.192 0 0 1 4.386-4.398zm-14.03 10.202a5.226 5.226 0 0 1 5.22-5.22 5.226 5.226 0 0 1 5.22 5.22 5.226 5.226 0 0 1-5.22 5.22 5.226 5.226 0 0 1-5.22-5.22zm6.77 7.308l-1.55 3.613-1.548-3.613h3.098zm-2.593 26.1v4.176H2.088v-4.176c0-2.888 1.966-5.318 4.628-6.04l3.724 8.69 3.724-8.69c2.662.722 4.628 3.152 4.628 6.04zM8.89 52.2h3.098l-1.549 3.613L8.89 52.2zm1.549-2.088a5.226 5.226 0 0 1-5.22-5.22 5.226 5.226 0 0 1 5.22-5.22 5.226 5.226 0 0 1 5.22 5.22 5.226 5.226 0 0 1-5.22 5.22zm14.924-7.308H17.44a7.32 7.32 0 0 0-5.877-5.124 6.27 6.27 0 0 1 4.548-5.092l3.725 8.69 3.724-8.69c2.662.722 4.628 3.152 4.628 6.04v.275a7.333 7.333 0 0 0-2.824 3.9zm15.352 15.66v4.176H24.012v-4.176c0-2.888 1.966-5.318 4.628-6.04l3.724 8.69 3.724-8.69c2.662.722 4.628 3.152 4.628 6.04zm-9.9-6.264h3.098l-1.55 3.613-1.548-3.613zm1.549-2.088a5.226 5.226 0 0 1-5.22-5.22 5.226 5.226 0 0 1 5.22-5.22 5.226 5.226 0 0 1 5.22 5.22 5.226 5.226 0 0 1-5.22 5.22zm14.923-7.308h-7.923a7.325 7.325 0 0 0-2.824-3.9v-.276c0-2.888 1.966-5.318 4.628-6.04l3.724 8.69 3.724-8.69a6.27 6.27 0 0 1 4.547 5.092 7.322 7.322 0 0 0-5.876 5.124zm1.78 2.088a5.226 5.226 0 0 1 5.22-5.22 5.226 5.226 0 0 1 5.22 5.22 5.226 5.226 0 0 1-5.22 5.22 5.226 5.226 0 0 1-5.22-5.22zm6.77 7.308l-1.55 3.613-1.549-3.613h3.1zm6.803 10.44H45.936v-4.176c0-2.888 1.966-5.318 4.628-6.04l3.724 8.69 3.724-8.69c2.662.722 4.628 3.152 4.628 6.04v4.176z"/></svg>