<svg xmlns="http://www.w3.org/2000/svg" width="65" height="65" viewBox="0 0 65 65">
    <g fill="#FF424E" fill-rule="nonzero">
        <path d="M19.661 34.787c-5.775 0-10.588-4.668-10.588-10.59 0-5.92 4.668-10.588 10.588-10.588 5.921 0 10.59 4.668 10.59 10.589 0 5.92-4.682 10.589-10.59 10.589zm0-18.29c-4.259 0-7.832 3.441-7.832 7.833 0 4.259 3.441 7.833 7.832 7.833 4.26 0 7.833-3.442 7.833-7.833 0-4.392-3.441-7.833-7.833-7.833zM40.14 28.866c-.553-.277-.83-.686-.83-1.24v-4.945h-4.945c-.831 0-1.372-.554-1.372-1.371V1.37c0-.83.554-1.371 1.372-1.371H63.23c.83 0 1.371.554 1.371 1.371V21.31c0 .83-.554 1.371-1.371 1.371H47.565l-5.908 5.908c-.277.277-.897.527-1.516.277zm-4.39-8.928h4.944c.831 0 1.372.554 1.372 1.372v3.02l3.982-3.983c.277-.277.554-.409.963-.409h14.848V2.756H35.75v17.182zM38.083 64.615H1.371c-.83 0-1.371-.554-1.371-1.371v-16.22c0-4.404 3.574-8.11 8.11-8.11h6.184c.41 0 .686.132.963.409l4.536 4.536 4.537-4.536c.277-.277.553-.409.962-.409h6.185c4.404 0 8.11 3.574 8.11 8.11v16.22c-.132.817-.818 1.371-1.504 1.371zM2.756 61.86h33.956V47.024c0-2.888-2.334-5.367-5.367-5.367h-5.499l-5.09 5.09c-.554.554-1.371.554-1.925 0l-5.09-5.09H8.255c-2.888 0-5.367 2.334-5.367 5.367v14.848h-.132v-.013z"/>
        <path d="M52.101 17.736c-.277 0-.409 0-.686-.132l-2.61-1.384-2.612 1.371c-.408.277-.962.132-1.516-.132-.409-.277-.686-.83-.554-1.371l.554-2.888-2.057-2.057c-.41-.409-.554-.963-.41-1.372.133-.408.555-.83 1.095-.962l2.888-.409 1.24-2.611c.277-.409.686-.83 1.24-.83.553 0 .962.276 1.239.83l1.24 2.611 3.164.409c.554.132.963.409 1.095.962.132.554 0 1.095-.409 1.372L52.945 13.2l.554 2.888a1.296 1.296 0 0 1-.554 1.371c-.29.132-.567.277-.844.277zm-5.63-6.606l.685.553c.277.277.409.831.409 1.24l-.132.963.83-.41c.41-.276.831-.276 1.24 0l.83.41-.13-.831c-.133-.409.13-.963.408-1.24l.686-.553-1.095-.277c-.409 0-.83-.41-1.094-.686l-.277-.83-.41.83c-.131.409-.553.686-1.094.686l-.857.145z"/>
    </g>
</svg>
