<svg xmlns="http://www.w3.org/2000/svg" width="65" height="65" viewBox="0 0 65 65">
    <g fill="#FF424E" fill-rule="nonzero">
        <path d="M64.3 22.126L33.198.208c-.556-.277-1.244-.277-1.655 0L.533 22.166c-.317.238-.516.635-.516 1.111v40.196c0 .834.556 1.376 1.377 1.376h11.064c.834 0 1.377-.556 1.377-1.376V38.339h37.19v25.134c0 .834.556 1.376 1.377 1.376h11.065c.688 0 1.376-.556 1.376-1.376V23.29c.027-.517-.185-.927-.543-1.165zM32.377 2.975L59.06 21.9H5.55L32.377 2.975zm29.594 59.121h-8.298V36.963c0-.834-.556-1.377-1.377-1.377h-39.97c-.834 0-1.377.556-1.377 1.377v25.133H2.651V24.667h59.32v37.43z"/>
        <path d="M18.268 64.862H46.34V43.448H18.268v21.414zm2.767-18.648h9.952v4.976h2.767v-4.976h9.82v15.882h-22.54V46.214z"/>
    </g>
</svg>
