<svg xmlns="http://www.w3.org/2000/svg" width="173" height="60" viewBox="0 0 173 60"><g fill="none" fill-rule="evenodd"><path d="M76.68 21.85c-1.526 0-2.688-.324-3.485-.97-.797-.647-1.195-1.627-1.195-2.94 0-.838.182-1.55.547-2.138.365-.588.902-1.035 1.61-1.342.708-.307 1.572-.46 2.592-.46a9.06 9.06 0 0 1 1.929.196v1.469a8.52 8.52 0 0 0-1.785-.186c-.995 0-1.731.2-2.208.6-.476.4-.714 1.013-.714 1.84 0 .841.233 1.46.698 1.857.466.396 1.175.594 2.128.594.641 0 1.268-.079 1.88-.238v1.474a7.956 7.956 0 0 1-1.997.243zm9.212-.1l-.749-2.026h-3.39l-.748 2.027h-1.833l2.932-7.653h2.704l2.938 7.653h-1.854zm-3.634-3.396h2.38l-1.19-3.222-1.19 3.222zm11.518 3.397l-2.184-2.787h-.063c-.255 0-.581-.012-.978-.036v2.823h-1.843v-7.44c.4-.09.848-.164 1.344-.22a12.42 12.42 0 0 1 1.413-.086c1.229 0 2.149.2 2.76.597.61.399.916 1.022.916 1.87 0 .548-.145 1.009-.436 1.383-.29.374-.712.654-1.264.84l2.417 3.056h-2.082zm-3.225-4.137c.372.038.724.057 1.057.057.616 0 1.068-.095 1.355-.284.287-.19.43-.493.43-.91 0-.424-.14-.73-.422-.915-.282-.187-.729-.28-1.342-.28-.347 0-.706.033-1.078.099v2.233zm12.304 4.137l-.75-2.027h-3.389l-.749 2.027h-1.833l2.933-7.653h2.704l2.938 7.653h-1.854zm-3.634-3.397h2.38l-1.19-3.222-1.19 3.222zm12.4-4.256h1.858l-2.932 7.653h-2.715l-2.932-7.653h1.992l2.348 6.293 2.38-6.293zm8.775 7.653l-.749-2.027h-3.39l-.748 2.027h-1.833l2.933-7.653h2.704l2.937 7.653h-1.854zm-3.633-3.397h2.38l-1.19-3.222-1.19 3.222zm12.287-4.256h1.775v7.653h-1.892l-3.947-5.155v5.155h-1.774v-7.653h1.891l3.947 5.155v-5.155zm8.755 7.751a8.63 8.63 0 0 1-2.523-.352V20.06c.357.117.772.21 1.243.277.47.067.903.1 1.296.1.57 0 .978-.074 1.222-.222a.72.72 0 0 0 .366-.657.666.666 0 0 0-.111-.398c-.074-.103-.2-.191-.377-.263a3.926 3.926 0 0 0-.744-.197l-.648-.124c-.854-.162-1.473-.423-1.857-.783-.384-.36-.576-.842-.576-1.446 0-.754.303-1.334.91-1.74.608-.404 1.509-.607 2.702-.607.79 0 1.502.083 2.136.248v1.443a6.442 6.442 0 0 0-.986-.204 8.258 8.258 0 0 0-1.107-.075c-.645 0-1.106.075-1.384.225-.278.15-.417.366-.417.648 0 .152.032.279.095.38a.714.714 0 0 0 .327.256c.154.07.37.131.646.187l.653.124c.623.117 1.125.276 1.506.478.38.202.657.446.829.734.172.288.258.628.258 1.021 0 .493-.139.919-.415 1.278-.276.358-.674.632-1.192.822-.52.19-1.136.284-1.852.284zm6.758-.098v-6.215h-2.79v-1.438h7.46v1.438h-2.79v6.215h-1.88zm11.64 0l-.75-2.027h-3.39l-.748 2.027h-1.833l2.932-7.653h2.704l2.938 7.653h-1.854zm-3.635-3.397h2.38l-1.19-3.222-1.19 3.222zm8.522 3.397v-6.215h-2.79v-1.438h7.46v1.438h-2.79v6.215h-1.88zm7.469-1.37H173v1.37h-6.3v-7.653h6.247v1.37h-4.388v1.686h3.83v1.37h-3.83v1.857zM86.62 29.902h4.681v15.894h-3.63v-11.18l-4.397 8.882h-3.258l-4.396-8.57v10.868H72V29.902h4.67l5.03 10.009 4.92-10.009zM102.86 46c-1.779 0-3.324-.317-4.637-.95-1.312-.634-2.322-1.561-3.029-2.782-.707-1.22-1.06-2.694-1.06-4.419 0-1.725.353-3.198 1.06-4.42.707-1.22 1.717-2.147 3.03-2.78 1.312-.634 2.857-.95 4.636-.95 1.786 0 3.335.318 4.647.955 1.313.637 2.322 1.566 3.03 2.787.707 1.22 1.06 2.69 1.06 4.408 0 1.718-.355 3.188-1.066 4.408-.71 1.221-1.722 2.15-3.034 2.787-1.313.637-2.858.956-4.637.956zm0-2.985c1.524 0 2.701-.426 3.532-1.278.831-.852 1.247-2.123 1.247-3.813 0-1.754-.418-3.066-1.252-3.936-.835-.87-2.01-1.304-3.527-1.304-1.51 0-2.683.424-3.521 1.272-.839.849-1.258 2.121-1.258 3.818 0 1.775.412 3.093 1.236 3.952.824.859 2.005 1.289 3.543 1.289zm23.785-13.113h3.827l-6.036 15.894h-5.588l-6.037-15.894h4.101l4.833 13.07 4.9-13.07zm5.653 15.894V29.902h3.871v15.894h-3.87zM151.6 29.902h3.653v15.894h-3.893l-8.125-10.707v10.707h-3.653V29.902h3.893L151.6 40.61V29.902zm21.4 8.162v7.517c-1.655.265-3.197.398-4.626.398-3.448 0-6.029-.679-7.742-2.036-1.713-1.356-2.573-3.366-2.58-6.03 0-1.746.393-3.234 1.18-4.462.788-1.227 1.954-2.16 3.5-2.797 1.545-.637 3.433-.956 5.664-.956 1.385 0 2.727.136 4.024.408v3.05a18.009 18.009 0 0 0-3.74-.387c-2.252.008-3.916.434-4.992 1.278-1.075.845-1.613 2.152-1.613 3.92.015 3.308 2.042 4.962 6.08 4.962.416 0 .824-.011 1.225-.033v-4.832H173z" fill="#FFF"/><path fill="#FF424E" d="M45.693 8.597a5.488 5.488 0 0 1-.955-3.103C44.738 2.46 47.185 0 50.204 0c3.02 0 5.467 2.46 5.467 5.494s-2.448 5.494-5.467 5.494a5.38 5.38 0 0 1-.625-.036c-1.478.586-2.442 1.2-2.894 1.846-.455.65-.327 2.042.384 4.175a17.557 17.557 0 0 1 5.293 12.593c0 4.5-1.684 8.606-4.453 11.714-.054 1.353.188 2.374.727 3.064.667.853 1.824 1.428 3.473 1.724a7.14 7.14 0 0 1 2.698-.526c3.973 0 7.193 3.237 7.193 7.23C62 56.763 58.78 60 54.807 60c-3.972 0-7.192-3.236-7.192-7.229 0-1.275.329-2.474.905-3.514-.504-1.75-1-2.937-1.489-3.562-.401-.514-1.407-.896-3.018-1.146a17.331 17.331 0 0 1-9.129 2.584 17.37 17.37 0 0 1-5.872-1.016c-.814.723-1.377 1.42-1.69 2.09-.303.65-.547 1.54-.733 2.67a2.96 2.96 0 0 1 .743 1.966 2.956 2.956 0 0 1-2.95 2.964 2.956 2.956 0 0 1-2.948-2.964 2.956 2.956 0 0 1 3.407-2.928c.688-.952 1.165-1.714 1.432-2.286.272-.584.5-1.385.685-2.402a17.575 17.575 0 0 1-9.552-15.66c0-1.456.176-2.87.508-4.222-1.404-2.885-2.704-4.632-3.9-5.242-1.272-.647-3.272-1.231-6-1.752a5.28 5.28 0 0 1-2.691.733c-2.94 0-5.323-2.395-5.323-5.35 0-2.953 2.383-5.348 5.323-5.348 2.938 0 5.32 2.393 5.322 5.346 1.848 2.007 3.405 3.332 4.671 3.977 1.185.604 3.369.649 6.552.134a17.443 17.443 0 0 1 9.305-5.446c.279-.263.41-.492.393-.687a.953.953 0 0 0-.271-.578 3.541 3.541 0 0 1-2.525-3.397 3.533 3.533 0 0 1 3.525-3.542 3.533 3.533 0 0 1 3.524 3.542 3.544 3.544 0 0 1-1.864 3.125c-.13.247-.187.471-.169.674.016.178.195.336.537.475a17.371 17.371 0 0 1 6.376.987c2.28-.194 3.676-.657 4.189-1.39.534-.762.802-1.765.805-3.009zm-40.299 7.74a2.524 2.524 0 0 0 2.518-2.53 2.524 2.524 0 0 0-2.518-2.53 2.524 2.524 0 0 0-2.517 2.53 2.524 2.524 0 0 0 2.517 2.53zm49.413 39.76a3.317 3.317 0 0 0 3.309-3.326 3.317 3.317 0 0 0-3.309-3.325A3.317 3.317 0 0 0 51.5 52.77a3.317 3.317 0 0 0 3.308 3.325zM32.295 6.794a.935.935 0 0 0-.935.935v.01a.935.935 0 1 0 1.87 0v-.01a.935.935 0 0 0-.935-.935zm17.91.578c1.032 0 1.87-.841 1.87-1.879s-.838-1.88-1.87-1.88c-1.034 0-1.87.842-1.87 1.88 0 1.038.836 1.88 1.87 1.88z"/><path fill="#FFF" fill-rule="nonzero" d="M45.16 25.423h-.428v-1.087a.214.214 0 0 0-.214-.216h-1.742v-2.04a.647.647 0 0 0-.642-.652H28.375a.647.647 0 0 0-.643.652v2.038h-1.74a.215.215 0 0 0-.215.218v1.087h-.427a.431.431 0 0 0-.428.435v2.283c0 .24.191.435.428.435h.427v1.087c0 .12.096.217.214.217h1.741v1.911h-.016a.647.647 0 0 0-.642.652v2.536c0 .216.105.405.264.524a.655.655 0 0 0-.264.526v1.018c0 .36.288.652.642.652h.323v1.05c0 .24.29.434.65.434h2.166c.36 0 .65-.194.65-.434V37.7h7.497v1.049c0 .24.29.434.652.434h2.166c.36 0 .65-.194.65-.434v-1.05h.323a.648.648 0 0 0 .643-.652V36.03a.657.657 0 0 0-.265-.526.653.653 0 0 0 .265-.524v-2.536a.648.648 0 0 0-.643-.652h-.016v-1.91h1.74a.216.216 0 0 0 .216-.218v-1.087h.426a.431.431 0 0 0 .43-.435v-2.283a.431.431 0 0 0-.429-.435zm-17.428 4.023h-1.527v-.87h.428a.431.431 0 0 0 .428-.434v-2.284a.431.431 0 0 0-.428-.434h-.428v-.87h1.527v4.892zm.946 7.71a.593.593 0 0 1-.59-.598c0-.33.265-.598.59-.598.325 0 .589.268.589.598 0 .33-.264.597-.589.597zm1.57 0a.593.593 0 0 1-.589-.598c0-.33.264-.598.59-.598.325 0 .588.268.588.598 0 .33-.263.597-.589.597zm.687-2.464H28.08v-1.776h2.855v1.776zm7.71.887h-6.782v-.79h6.783v.79zm0-1.246h-6.782v-.99h6.783v.99zm0-1.447h-6.782v-.99h6.783v.99zm0-1.445h-6.782v-.99h6.783v.99zm-9.627-4.075v-4.632H41.49v4.632H29.018zm11.244 9.79a.592.592 0 0 1-.59-.598c0-.33.264-.598.59-.598.325 0 .588.268.588.598 0 .33-.263.597-.588.597zm1.569 0a.593.593 0 0 1-.588-.598c0-.33.264-.598.588-.598.327 0 .59.268.59.598 0 .33-.265.597-.59.597zm.598-2.464h-2.856v-1.776h2.856v1.776zm1.875-9.269h-.429a.43.43 0 0 0-.428.435v2.283c0 .24.19.435.428.435h.429v.87h-1.529v-4.892h1.529v.87z"/></g></svg>